<?xml version="1.0" encoding="UTF-8" standalone="no"?>
<!-- Created with Inkscape (http://www.inkscape.org/) -->

<svg
   width="153.40392mm"
   height="158.38931mm"
   viewBox="0 0 153.40392 158.38931"
   version="1.1"
   id="svg5"
   sodipodi:docname="b.svg"
   inkscape:version="1.2.2 (b0a8486541, 2022-12-01)"
   xmlns:inkscape="http://www.inkscape.org/namespaces/inkscape"
   xmlns:sodipodi="http://sodipodi.sourceforge.net/DTD/sodipodi-0.dtd"
   xmlns="http://www.w3.org/2000/svg"
   xmlns:svg="http://www.w3.org/2000/svg">
  <sodipodi:namedview
     id="namedview7"
     pagecolor="#ffffff"
     bordercolor="#000000"
     borderopacity="0.25"
     inkscape:showpageshadow="2"
     inkscape:pageopacity="0.0"
     inkscape:pagecheckerboard="0"
     inkscape:deskcolor="#d1d1d1"
     inkscape:document-units="mm"
     showgrid="false"
     inkscape:zoom="1.414741"
     inkscape:cx="240.6801"
     inkscape:cy="349.18053"
     inkscape:window-width="2560"
     inkscape:window-height="1371"
     inkscape:window-x="0"
     inkscape:window-y="0"
     inkscape:window-maximized="1"
     inkscape:current-layer="layer1"
     inkscape:lockguides="false" />
  <defs
     id="defs2" />
  <g
     inkscape:label="Layer 1"
     inkscape:groupmode="layer"
     id="layer1"
     transform="translate(-29.275482,-17.565057)">
    <path
       style="fill:#000000;stroke-width:0.264583"
       id="path589"
       d="m 29.275482,28.995295 c 1.327375,5.352192 1.890419,10.859726 2.27176,16.348902 0.242237,3.486819 0.409448,6.978928 0.543213,10.471592 0.422463,11.030621 0.409869,17.441166 0.53671,28.745036 -0.377042,12.092673 0.264404,24.192725 0.01172,36.285125 -0.124047,5.9361 -0.556051,11.86177 -0.834075,17.79265 0,0 6.385258,3.27752 6.385258,3.27752 v 0 c 0.0795,-6.03121 -0.0365,-12.06816 0.238501,-18.09362 0.362461,-7.94182 2.191364,-26.466322 2.967736,-34.730976 0.626062,-4.840272 1.196462,-9.688068 1.878187,-14.520812 1.026081,-7.273877 2.202122,-14.186913 3.509523,-21.388041 0.321067,-1.768422 1.657223,-8.886946 2.229718,-11.317795 0.195088,-0.82836 0.468307,-1.63635 0.702461,-2.454524 0,0 -20.4407,-10.415057 -20.4407,-10.415057 z" />
    <path
       style="fill:#000000;stroke-width:0.264583"
       id="path617"
       d="m 69.591875,93.148068 c 0.444172,-0.189812 0.873733,-0.418325 1.332518,-0.569434 2.069246,-0.681545 4.975643,-1.290926 6.982172,-1.672301 2.065972,-0.392676 4.137498,-0.759074 6.216427,-1.07609 9.321803,-1.421484 8.411716,-1.144786 18.547288,-1.914652 12.36295,-0.566303 24.77303,-0.136525 37.06088,1.360014 7.72059,0.94029 14.67106,2.080705 22.06808,4.458806 2.80489,0.901758 5.46788,2.196513 8.20182,3.294769 -3.17981,-1.656218 -6.01317,-4.320781 -9.53942,-4.968653 -1.57214,-0.288843 2.19597,2.365581 2.97332,3.762282 0.74418,1.337096 1.21223,2.83142 1.52962,4.328381 0.73869,3.48405 0.49975,7.25808 -0.25624,10.70266 -0.48494,2.20957 -1.32167,4.32698 -1.98251,6.49047 -1.15352,2.40365 -2.13413,4.89822 -3.46056,7.21095 -3.23171,5.63475 -7.97922,11.85651 -12.54632,16.35523 -6.39313,6.29741 -15.14355,12.68373 -22.85247,17.07078 -4.77013,2.71463 -9.864,4.8161 -14.79601,7.22415 -4.97343,1.85491 -9.94687,3.70982 -14.920307,5.56474 0,0 7.741877,5.1842 7.741877,5.1842 v 0 c 4.71617,-2.04515 9.43234,-4.0903 14.14852,-6.13546 8.99268,-4.00262 21.61211,-9.32636 30.18512,-14.29218 5.46874,-3.1677 16.20419,-10.9211 21.00615,-15.50074 4.86932,-4.64387 7.18804,-8.69072 10.83778,-14.13863 0.98647,-2.1101 2.15958,-4.14262 2.95939,-6.33029 1.89794,-5.19133 2.54132,-11.16498 -0.15345,-16.248 -4.69888,-8.863266 -16.08907,-11.929305 -23.86431,-16.411455 -2.31214,-0.691505 -4.58425,-1.534631 -6.93642,-2.074516 -6.16633,-1.415338 -14.03491,-2.273075 -20.21322,-2.844435 -12.73133,-1.177372 -25.51742,-1.643256 -38.29019,-2.082869 -3.908584,-0.06924 -7.816731,-0.170582 -11.725751,-0.207732 -3.304159,-0.0314 -6.608617,-0.003 -9.912919,0.0021 -6.49138,0.0099 -12.982712,0.04763 -19.474071,0.06482 0,0 19.133206,13.393087 19.133206,13.393087 z" />
    <path
       style="fill:#000000;stroke-width:0.264583"
       id="path653"
       d="m 79.091459,33.763604 c 1.19921,-0.581173 2.354707,-1.262891 3.597632,-1.743522 4.949317,-1.913866 10.388618,-3.292602 15.555669,-4.311464 7.15193,-1.410251 15.01626,-2.557856 22.32366,-2.490426 3.68354,0.03399 7.34112,0.621585 11.01169,0.932377 3.16027,0.99301 6.16884,2.914651 9.48082,2.979028 2.45241,0.04767 -5.22813,-4.848172 -6.75187,-2.925983 -1.568,1.978029 3.27094,4.029454 3.95003,6.460517 0.83216,2.979047 0.88574,6.207315 0.44373,9.268661 -1.40944,9.761661 -4.84397,13.142655 -10.04477,21.349509 -2.86493,3.057808 -5.72986,6.115619 -8.5948,9.173427 0,0 10.38454,6.311262 10.38454,6.311262 v 0 c 2.87187,-3.117053 5.74374,-6.234107 8.61561,-9.351163 5.36831,-6.895687 10.42258,-12.037219 13.16164,-20.526581 0.97809,-3.031443 1.69956,-6.341579 1.17516,-9.483442 -0.45439,-2.722393 -1.81641,-5.540653 -3.97077,-7.26595 -14.9305,-11.956958 -15.66527,-11.180637 -29.06645,-14.239873 -3.48459,-0.109021 -6.96795,-0.384815 -10.45377,-0.327063 -3.90147,0.06464 -7.79459,0.398955 -11.685426,0.693859 -3.955757,0.299824 -7.899517,0.741539 -11.851275,1.090091 -8.490781,0.748901 -16.988867,1.455864 -25.502759,1.886742 0,0 18.221709,12.519994 18.221709,12.519994 z" />
  </g>
</svg>
